# xmcd
#
# Track frame offsets:
#	150
#	20927
#	36977
#	54002
#	73352
#	90905
#	107255
#	126980
#	141682
#	162007
#
# Disc length: 2416 seconds
#
# Revision: 0
# Processed by: cddbd v1.5.2PL0 Copyright (c) Steve Scherf et al.
# Submitted via: EasyCDDAExtractor 15.3.0.1
#
DISCID=89096e0a
DTITLE=Luis Angel - Yo Te Amo
DYEAR=1998
DGENRE=Latin
TTITLE0=No Hago Otra Cosa Que Pensar En Ti
TTITLE1=Yo Te Amo
TTITLE2=Te Deje Escapar
TTITLE3=El Remedio Total
TTITLE4=¡Que Cuba Cante!
TTITLE5=La Gringa
TTITLE6=Con Un Ramo De Palabras
TTITLE7=Mira Como Vivo
TTITLE8=No Puedo Estar Sin Ti
TTITLE9=Labios Rojos
EXTD=
EXTT0=
EXTT1=
EXTT2=
EXTT3=
EXTT4=
EXTT5=
EXTT6=
EXTT7=
EXTT8=
EXTT9=
PLAYORDER=
